<svg width="32" height="32" viewBox="0 0 32 32" fill="none" xmlns="http://www.w3.org/2000/svg">
<path d="M16 32C24.8366 32 32 24.8366 32 16C32 7.16344 24.8366 0 16 0C7.16344 0 0 7.16344 0 16C0 24.8366 7.16344 32 16 32Z" fill="#486DF7"/>
<path d="M16.8998 7.66699L18.9582 17.2587C19.0832 17.8337 18.9415 18.417 18.5748 18.8753C18.2082 19.3253 17.6582 19.592 17.0748 19.592H15.4832L16.4832 24.2587C20.8582 24.0087 24.3415 20.392 24.3415 15.9503C24.3415 11.5087 21.0832 8.11699 16.9082 7.66699H16.8998ZM20.6332 15.4087C19.9415 15.4087 19.3832 14.8503 19.3832 14.1587C19.3832 13.467 19.9415 12.9087 20.6332 12.9087C21.3248 12.9087 21.8832 13.467 21.8832 14.1587C21.8832 14.8503 21.3248 15.4087 20.6332 15.4087Z" fill="white"/>
<path d="M14.7332 17.092H16.3665L14.3665 7.77533C10.5498 8.53366 7.6665 11.9003 7.6665 15.9503C7.6665 20.0003 10.2998 23.0503 13.8665 24.0003L12.8748 19.3837C12.7582 18.8253 12.8915 18.242 13.2582 17.8003C13.6165 17.3503 14.1582 17.1003 14.7332 17.1003V17.092ZM11.9748 14.1587C11.9748 13.467 12.5332 12.9087 13.2248 12.9087C13.9165 12.9087 14.4748 13.467 14.4748 14.1587C14.4748 14.8503 13.9165 15.4087 13.2248 15.4087C12.5332 15.4087 11.9748 14.8503 11.9748 14.1587Z" fill="white"/>
</svg>
