<svg width="32" height="32" viewBox="0 0 32 32" fill="none" xmlns="http://www.w3.org/2000/svg">
  <rect width="32" height="32" rx="16" fill="#8A3FFC" />
  <path
    d="M21.2413 10.17L21.7813 11.62C21.7813 11.62 21.8313 11.69 21.8713 11.71L23.3213 12.25C23.5513 12.34 23.5513 12.66 23.3213 12.75L21.8713 13.29C21.8713 13.29 21.8013 13.34 21.7813 13.38L21.2413 14.83C21.1513 15.06 20.8313 15.06 20.7413 14.83L20.2013 13.38C20.2013 13.38 20.1513 13.31 20.1113 13.29L18.6613 12.75C18.4313 12.66 18.4313 12.34 18.6613 12.25L20.1113 11.71C20.1113 11.71 20.1813 11.66 20.2013 11.62L20.7413 10.17C20.8313 9.94 21.1513 9.94 21.2413 10.17Z"
    fill="white" />
  <path
    d="M13.9913 11.3396L15.0713 14.2396C15.1013 14.3196 15.1613 14.3796 15.2413 14.4096L18.1413 15.4896C18.6013 15.6596 18.6013 16.3096 18.1413 16.4796L15.2413 17.5596C15.1613 17.5896 15.1013 17.6496 15.0713 17.7296L13.9913 20.6296C13.8213 21.0896 13.1713 21.0896 13.0013 20.6296L11.9213 17.7296C11.8913 17.6496 11.8313 17.5896 11.7513 17.5596L8.85126 16.4796C8.39126 16.3096 8.39126 15.6596 8.85126 15.4896L11.7513 14.4096C11.8313 14.3796 11.8913 14.3196 11.9213 14.2396L13.0013 11.3396C13.1713 10.8796 13.8213 10.8796 13.9913 11.3396Z"
    fill="white" />
  <path
    d="M21.2413 17.17L21.7813 18.62C21.7813 18.62 21.8313 18.69 21.8713 18.71L23.3213 19.25C23.5513 19.34 23.5513 19.66 23.3213 19.75L21.8713 20.29C21.8713 20.29 21.8013 20.34 21.7813 20.38L21.2413 21.83C21.1513 22.06 20.8313 22.06 20.7413 21.83L20.2013 20.38C20.2013 20.38 20.1513 20.31 20.1113 20.29L18.6613 19.75C18.4313 19.66 18.4313 19.34 18.6613 19.25L20.1113 18.71C20.1113 18.71 20.1813 18.66 20.2013 18.62L20.7413 17.17C20.8313 16.94 21.1513 16.94 21.2413 17.17Z"
    fill="white" />
</svg>
  