<svg width="32" height="32" viewBox="0 0 32 32" fill="none" xmlns="http://www.w3.org/2000/svg">
<rect width="32" height="32" rx="16" fill="#FF775F"/>
<path d="M19.88 15.4C18.7 13.3867 18.6667 12.0067 18.6667 12C18.6667 11.7067 18.4734 11.4467 18.1934 11.36C17.9134 11.2733 17.6067 11.3867 17.4467 11.6267L16.9934 12.3C16.3467 10.3067 15.0934 9.47334 15.0267 9.43334C14.82 9.30001 14.56 9.29334 14.3467 9.40668C14.1334 9.52668 14 9.74668 14 9.99334C14 12.5733 13.2467 13.6933 12.52 14.7733C11.94 15.64 11.3334 16.5333 11.3334 17.9933C11.3334 20.5667 13.4267 22.66 16 22.66C18.5734 22.66 20.6667 20.5667 20.6667 17.9933C20.6667 16.8867 20.2467 16.0267 19.88 15.3933V15.4ZM16 21.0867C15.5734 20.6 15.3334 19.98 15.3334 19.3267C15.3334 18.6733 15.5734 18.0533 16 17.5667C16.4267 18.0533 16.6667 18.6733 16.6667 19.3267C16.6667 19.98 16.4267 20.6 16 21.0867ZM17.6934 20.8533C17.8934 20.3733 18 19.86 18 19.3333C18 18.08 17.42 16.9133 16.4067 16.14C16.1667 15.9533 15.8334 15.9533 15.5934 16.14C14.58 16.92 14 18.08 14 19.3333C14 19.8667 14.1134 20.38 14.3067 20.8533C13.3267 20.2733 12.6667 19.2133 12.6667 18C12.6667 16.9467 13.0667 16.3533 13.6267 15.5267C14.2334 14.62 14.96 13.54 15.2334 11.62C15.5734 12.18 15.9 12.98 16.0067 14.0733C16.0334 14.3533 16.2334 14.5867 16.5067 14.6533C16.78 14.72 17.0667 14.6067 17.22 14.3733L17.66 13.7133C17.86 14.36 18.1934 15.1667 18.7267 16.08C19.0267 16.5933 19.3334 17.22 19.3334 18.0067C19.3334 19.2267 18.6667 20.28 17.6934 20.86V20.8533Z" fill="white"/>
</svg>
